# xmcd
#
# Track frame offsets: 
#        150
#        17919
#        31484
#        49257
#        62388
#        84400
#        103379
#        127100
#        146245
#        160556
#        185287
#        200343
#        221957
#        234518
#
# Disc length: 3395 seconds
#
# Revision: 2
# Processed by: cddbd v1.5.2PL0 Copyright (c) Steve Scherf et al.
# Submitted via: ExactAudioCopy v1.1
#
DISCID=ca0d410e
DTITLE=Blind Boys of Alabama - Duets
DYEAR=2009
DGENRE=Gospel
TTITLE0=Blind Boys of Alabama with Ben Harper - Take My Hand
TTITLE1=Blind Boys of Alabama with Susan Tedeschi - Magnificent Sanctu
TTITLE1=ary Band
TTITLE2=Blind Boys of Alabama with Toots Hibberts - Perfect Peace
TTITLE3=Blind Boys of Alabama with Randy Travis - Up Above My Head (I 
TTITLE3=Hear Music in the Air)
TTITLE4=Blind Boys of Alabama with Timothy B. Schmidt - Secular Praise
TTITLE5=Blind Boys of Alabama with Charlie Musselwhite - I Had Trouble
TTITLE6=Blind Boys of Alabama with Bonnie Raitt - When the Spell is Br
TTITLE6=oken
TTITLE7=Blind Boys of Alabama with Jars Of Clay - Nothing But the Bloo
TTITLE7=d
TTITLE8=Blind Boys of Alabama with Dan Zanes - Welcome Table
TTITLE9=Blind Boys of Alabama with Solomon Burke - None of Us Are Free
TTITLE10=Blind Boys of Alabama with Lou Reed - Jesus
TTITLE11=Blind Boys of Alabama with Marva Wright - How I Got Over (Liv
TTITLE11=e)
TTITLE12=Blind Boys of Alabama with Asleep At The Wheel - The Devil Ai
TTITLE12=n't Lazy
TTITLE13=Blind Boys of Alabama with John Hammond - One Kind Favor
EXTD=
EXTT0=
EXTT1=
EXTT2=
EXTT3=
EXTT4=
EXTT5=
EXTT6=
EXTT7=
EXTT8=
EXTT9=
EXTT10=
EXTT11=
EXTT12=
EXTT13=
PLAYORDER=
